{
  "accessors": [
    {
      "bufferView": 2,
      "componentType": 5126,
      "count": 2816,
      "max": [
        30952.5703125,
        31754.05859375,
        -71613.296875
      ],
      "min": [
        -31757.025390625,
        -19333.12890625,
        -165481.6875
      ],
      "type": "VEC3"
    },
    {
      "bufferView": 2,
      "byteOffset": 33792,
      "componentType": 5126,
      "count": 2816,
      "max": [
        0.9998351335525513,
        0.999955952167511,
        0.6967016458511353
      ],
      "min": [
        -0.9995985627174377,
        -0.9993560910224915,
        -0.9688769578933716
      ],
      "type": "VEC3"
    },
    {
      "bufferView": 1,
      "componentType": 5126,
      "count": 2816,
      "max": [
        0.9979459643363953,
        0.99970543384552
      ],
      "min": [
        0.0005343467346392572,
        0.0005383831448853016
      ],
      "type": "VEC2"
    },
    {
      "bufferView": 1,
      "byteOffset": 22528,
      "componentType": 5126,
      "count": 2816,
      "max": [
        0.9979459643363953,
        0.99970543384552
      ],
      "min": [
        0.0005343467346392572,
        0.0005383831448853016
      ],
      "type": "VEC2"
    },
    {
      "bufferView": 0,
      "componentType": 5125,
      "count": 15270,
      "type": "SCALAR"
    }
  ],
  "asset": {
    "extras": {
      "author": "sedayuzlu (https://sketchfab.com/sedayuzlu)",
      "license": "CC-BY-4.0 (http://creativecommons.org/licenses/by/4.0/)",
      "source": "https://sketchfab.com/3d-models/dress-pt-f4228661448a4aff9013d2f05d9b90aa",
      "title": "Dress pt"
    },
    "generator": "Sketchfab-15.37.0",
    "version": "2.0"
  },
  "bufferViews": [
    {
      "buffer": 0,
      "byteLength": 61080,
      "name": "floatBufferViews",
      "target": 34963
    },
    {
      "buffer": 0,
      "byteLength": 45056,
      "byteOffset": 61080,
      "byteStride": 8,
      "name": "floatBufferViews",
      "target": 34962
    },
    {
      "buffer": 0,
      "byteLength": 67584,
      "byteOffset": 106136,
      "byteStride": 12,
      "name": "floatBufferViews",
      "target": 34962
    }
  ],
  "buffers": [
    {
      "byteLength": 173720,
      "uri": "scene.bin"
    }
  ],
  "images": [
    {
      "uri": "textures/Material.010_baseColor.png"
    },
    {
      "uri": "textures/Material.010_metallicRoughness.png"
    }
  ],
  "materials": [
    {
      "doubleSided": true,
      "name": "Material.010",
      "occlusionTexture": {
        "index": 1
      },
      "pbrMetallicRoughness": {
        "baseColorTexture": {
          "index": 0
        },
        "metallicRoughnessTexture": {
          "index": 1
        }
      }
    }
  ],
  "meshes": [
    {
      "name": "1.001_Material.010_0",
      "primitives": [
        {
          "attributes": {
            "NORMAL": 1,
            "POSITION": 0,
            "TEXCOORD_0": 2,
            "TEXCOORD_1": 3
          },
          "indices": 4,
          "material": 0,
          "mode": 4
        }
      ]
    }
  ],
  "nodes": [
    {
      "children": [
        1
      ],
      "matrix": [
        1.0,
        0.0,
        0.0,
        0.0,
        0.0,
        2.220446049250313e-16,
        -1.0,
        0.0,
        0.0,
        1.0,
        2.220446049250313e-16,
        0.0,
        0.0,
        0.0,
        0.0,
        1.0
      ],
      "name": "Sketchfab_model"
    },
    {
      "children": [
        2
      ],
      "matrix": [
        0.009999999776482582,
        0.0,
        0.0,
        0.0,
        0.0,
        0.0,
        0.009999999776482582,
        0.0,
        0.0,
        -0.009999999776482582,
        0.0,
        0.0,
        0.0,
        0.0,
        0.0,
        1.0
      ],
      "name": "Basic clothes.fbx"
    },
    {
      "children": [
        3
      ],
      "name": "RootNode"
    },
    {
      "children": [
        4
      ],
      "matrix": [
        0.000941445876378566,
        0.0,
        0.0,
        0.0,
        0.0,
        -1.5338100179023412e-10,
        0.0009414458763785536,
        0.0,
        0.0,
        -0.0009414458763785536,
        -1.5338100179023412e-10,
        0.0,
        0.0,
        0.0,
        0.0,
        1.0
      ],
      "name": "1.001"
    },
    {
      "mesh": 0,
      "name": "1.001_Material.010_0"
    }
  ],
  "samplers": [
    {
      "magFilter": 9729,
      "minFilter": 9987,
      "wrapS": 10497,
      "wrapT": 10497
    }
  ],
  "scene": 0,
  "scenes": [
    {
      "name": "Sketchfab_Scene",
      "nodes": [
        0
      ]
    }
  ],
  "textures": [
    {
      "sampler": 0,
      "source": 0
    },
    {
      "sampler": 0,
      "source": 1
    }
  ]
}
