{
  "accessors": [
    {
      "bufferView": 2,
      "componentType": 5126,
      "count": 16427,
      "max": [
        0.05359679087996483,
        0.07749776542186737,
        0.17350441217422485
      ],
      "min": [
        -0.06030222028493881,
        -0.22233444452285767,
        -8.379718565265648e-06
      ],
      "type": "VEC3"
    },
    {
      "bufferView": 2,
      "byteOffset": 197124,
      "componentType": 5126,
      "count": 16427,
      "max": [
        0.9999900460243225,
        0.999772846698761,
        0.9998690485954285
      ],
      "min": [
        -0.9999424815177917,
        -0.9993708729743958,
        -1.0
      ],
      "type": "VEC3"
    },
    {
      "bufferView": 3,
      "componentType": 5126,
      "count": 16427,
      "max": [
        0.9999966025352478,
        0.9999983310699463,
        0.9974062442779541,
        1.0
      ],
      "min": [
        -0.999984085559845,
        -0.9999987483024597,
        -0.9995007514953613,
        -1.0
      ],
      "type": "VEC4"
    },
    {
      "bufferView": 1,
      "componentType": 5126,
      "count": 16427,
      "max": [
        0.9948038458824158,
        0.9755856990814209
      ],
      "min": [
        0.002112948801368475,
        0.001960919238626957
      ],
      "type": "VEC2"
    },
    {
      "bufferView": 1,
      "byteOffset": 131416,
      "componentType": 5126,
      "count": 16427,
      "max": [
        0.9948038458824158,
        0.9755856990814209
      ],
      "min": [
        0.002112948801368475,
        0.001960919238626957
      ],
      "type": "VEC2"
    },
    {
      "bufferView": 0,
      "componentType": 5125,
      "count": 93312,
      "type": "SCALAR"
    }
  ],
  "asset": {
    "extras": {
      "author": "NateSquared (https://sketchfab.com/NateSquared)",
      "license": "SKETCHFAB Standard (https://sketchfab.com/licenses)",
      "source": "https://sketchfab.com/3d-models/thermoboots-6c4be8233ebb48ff8c4e25b8fa60b448",
      "title": "Thermoboots"
    },
    "generator": "Sketchfab-16.68.0",
    "version": "2.0"
  },
  "bufferViews": [
    {
      "buffer": 0,
      "byteLength": 373248,
      "name": "floatBufferViews",
      "target": 34963
    },
    {
      "buffer": 0,
      "byteLength": 262832,
      "byteOffset": 373248,
      "byteStride": 8,
      "name": "floatBufferViews",
      "target": 34962
    },
    {
      "buffer": 0,
      "byteLength": 394248,
      "byteOffset": 636080,
      "byteStride": 12,
      "name": "floatBufferViews",
      "target": 34962
    },
    {
      "buffer": 0,
      "byteLength": 262832,
      "byteOffset": 1030328,
      "byteStride": 16,
      "name": "floatBufferViews",
      "target": 34962
    }
  ],
  "buffers": [
    {
      "byteLength": 1293160,
      "uri": "scene.bin"
    }
  ],
  "extensionsUsed": [
    "KHR_materials_specular"
  ],
  "images": [
    {
      "uri": "textures/M_N8_Boot_baseColor.png"
    },
    {
      "uri": "textures/M_N8_Boot_metallicRoughness.png"
    },
    {
      "uri": "textures/M_N8_Boot_normal.png"
    },
    {
      "uri": "textures/M_N8_Boot_specularf0.png"
    }
  ],
  "materials": [
    {
      "extensions": {
        "KHR_materials_specular": {
          "specularColorFactor": [
            1.0,
            1.0,
            1.0
          ],
          "specularFactor": 0.49828723287537635,
          "specularTexture": {
            "index": 3
          }
        }
      },
      "name": "M_N8_Boot",
      "normalTexture": {
        "index": 2
      },
      "occlusionTexture": {
        "index": 1
      },
      "pbrMetallicRoughness": {
        "baseColorTexture": {
          "index": 0
        },
        "metallicRoughnessTexture": {
          "index": 1
        }
      }
    }
  ],
  "meshes": [
    {
      "name": "N8_Boot_M_N8_Boot_0",
      "primitives": [
        {
          "attributes": {
            "NORMAL": 1,
            "POSITION": 0,
            "TANGENT": 2,
            "TEXCOORD_0": 3,
            "TEXCOORD_1": 4
          },
          "indices": 5,
          "material": 0,
          "mode": 4
        }
      ]
    }
  ],
  "nodes": [
    {
      "children": [
        1
      ],
      "matrix": [
        -1.0,
        2.832769343193999e-16,
        6.969827062919911e-32,
        0.0,
        -5.235256284713417e-32,
        6.123234262925839e-17,
        -1.0,
        0.0,
        -2.832769343193999e-16,
        -1.0,
        -6.123234262925839e-17,
        0.0,
        0.0,
        0.0,
        0.0,
        1.0
      ],
      "name": "Sketchfab_model"
    },
    {
      "children": [
        2
      ],
      "matrix": [
        0.009999999776482582,
        0.0,
        0.0,
        0.0,
        0.0,
        -0.009999999776482582,
        0.0,
        0.0,
        0.0,
        0.0,
        -0.009999999776482582,
        0.0,
        0.0,
        0.0,
        0.0,
        1.0
      ],
      "name": "e97ab8ffd5874e96aaeab0fa92e1c94d.fbx"
    },
    {
      "children": [
        3
      ],
      "name": "RootNode"
    },
    {
      "children": [
        4
      ],
      "matrix": [
        -99.99999999999964,
        -8.742277980456493e-06,
        0.0,
        0.0,
        8.742277980456493e-06,
        -99.99999999999964,
        0.0,
        0.0,
        0.0,
        0.0,
        100.0,
        0.0,
        0.0,
        0.0,
        0.0,
        1.0
      ],
      "name": "N8_Boot"
    },
    {
      "mesh": 0,
      "name": "N8_Boot_M_N8_Boot_0"
    }
  ],
  "samplers": [
    {
      "magFilter": 9729,
      "minFilter": 9987,
      "wrapS": 10497,
      "wrapT": 10497
    }
  ],
  "scene": 0,
  "scenes": [
    {
      "name": "Sketchfab_Scene",
      "nodes": [
        0
      ]
    }
  ],
  "textures": [
    {
      "sampler": 0,
      "source": 0
    },
    {
      "sampler": 0,
      "source": 1
    },
    {
      "sampler": 0,
      "source": 2
    },
    {
      "sampler": 0,
      "source": 3
    }
  ]
}
