{
  "accessors": [
    {
      "bufferView": 2,
      "componentType": 5126,
      "count": 3374,
      "max": [
        0.7875993847846985,
        2.2262589931488037,
        1.7249252796173096
      ],
      "min": [
        -0.7648202180862427,
        0.45298781991004944,
        -2.946976900100708
      ],
      "type": "VEC3"
    },
    {
      "bufferView": 2,
      "byteOffset": 40488,
      "componentType": 5126,
      "count": 3374,
      "max": [
        0.9999845027923584,
        0.9999886751174927,
        0.9987837672233582
      ],
      "min": [
        -0.9999123811721802,
        -0.995934009552002,
        -0.9991165399551392
      ],
      "type": "VEC3"
    },
    {
      "bufferView": 3,
      "componentType": 5126,
      "count": 3374,
      "max": [
        0.9999979734420776,
        0.9996534585952759,
        0.9462006092071533,
        1.0
      ],
      "min": [
        -0.9999691843986511,
        -0.9996827244758606,
        -0.990943193435669,
        1.0
      ],
      "type": "VEC4"
    },
    {
      "bufferView": 1,
      "componentType": 5126,
      "count": 3374,
      "max": [
        0.9031139612197876,
        0.9369512796401978
      ],
      "min": [
        0.0,
        0.0
      ],
      "type": "VEC2"
    },
    {
      "bufferView": 1,
      "byteOffset": 26992,
      "componentType": 5126,
      "count": 3374,
      "max": [
        0.9031139612197876,
        0.9369512796401978
      ],
      "min": [
        0.0,
        0.0
      ],
      "type": "VEC2"
    },
    {
      "bufferView": 1,
      "byteOffset": 53984,
      "componentType": 5126,
      "count": 3374,
      "max": [
        0.9031139612197876,
        0.9369512796401978
      ],
      "min": [
        0.0,
        0.0
      ],
      "type": "VEC2"
    },
    {
      "bufferView": 1,
      "byteOffset": 80976,
      "componentType": 5126,
      "count": 3374,
      "max": [
        0.9031139612197876,
        0.9369512796401978
      ],
      "min": [
        0.0,
        0.0
      ],
      "type": "VEC2"
    },
    {
      "bufferView": 0,
      "componentType": 5125,
      "count": 15504,
      "type": "SCALAR"
    },
    {
      "bufferView": 2,
      "byteOffset": 80976,
      "componentType": 5126,
      "count": 2570,
      "max": [
        0.8017013072967529,
        1.020005464553833,
        1.8454004526138306
      ],
      "min": [
        -0.750299334526062,
        0.004196553491055965,
        -3.0506138801574707
      ],
      "type": "VEC3"
    },
    {
      "bufferView": 2,
      "byteOffset": 111816,
      "componentType": 5126,
      "count": 2570,
      "max": [
        0.999997615814209,
        0.99998939037323,
        0.9994126558303833
      ],
      "min": [
        -0.9999853372573853,
        -0.9998621940612793,
        -0.9999237060546875
      ],
      "type": "VEC3"
    },
    {
      "bufferView": 3,
      "byteOffset": 53984,
      "componentType": 5126,
      "count": 2570,
      "max": [
        0.9998472929000854,
        0.9999997019767761,
        0.882742166519165,
        1.0
      ],
      "min": [
        -0.9998741149902344,
        -0.9997493624687195,
        -0.7997588515281677,
        1.0
      ],
      "type": "VEC4"
    },
    {
      "bufferView": 1,
      "byteOffset": 107968,
      "componentType": 5126,
      "count": 2570,
      "max": [
        0.9999999403953552,
        0.896006166934967
      ],
      "min": [
        0.0,
        0.0
      ],
      "type": "VEC2"
    },
    {
      "bufferView": 1,
      "byteOffset": 128528,
      "componentType": 5126,
      "count": 2570,
      "max": [
        0.9999999403953552,
        0.896006166934967
      ],
      "min": [
        0.0,
        0.0
      ],
      "type": "VEC2"
    },
    {
      "bufferView": 1,
      "byteOffset": 149088,
      "componentType": 5126,
      "count": 2570,
      "max": [
        0.9999999403953552,
        0.896006166934967
      ],
      "min": [
        0.0,
        0.0
      ],
      "type": "VEC2"
    },
    {
      "bufferView": 1,
      "byteOffset": 169648,
      "componentType": 5126,
      "count": 2570,
      "max": [
        0.9999999403953552,
        0.896006166934967
      ],
      "min": [
        0.0,
        0.0
      ],
      "type": "VEC2"
    },
    {
      "bufferView": 0,
      "byteOffset": 62016,
      "componentType": 5125,
      "count": 13008,
      "type": "SCALAR"
    }
  ],
  "asset": {
    "extras": {
      "author": "Alone dev games (https://sketchfab.com/cristopher.faundez)",
      "license": "CC-BY-4.0 (http://creativecommons.org/licenses/by/4.0/)",
      "source": "https://sketchfab.com/3d-models/japanese-female-shoe-d69501fb953349a7ad5e1843d2aabf33",
      "title": "Japanese female shoe"
    },
    "generator": "Sketchfab-12.97.0",
    "version": "2.0"
  },
  "bufferViews": [
    {
      "buffer": 0,
      "byteLength": 114048,
      "name": "floatBufferViews",
      "target": 34963
    },
    {
      "buffer": 0,
      "byteLength": 190208,
      "byteOffset": 114048,
      "byteStride": 8,
      "name": "floatBufferViews",
      "target": 34962
    },
    {
      "buffer": 0,
      "byteLength": 142656,
      "byteOffset": 304256,
      "byteStride": 12,
      "name": "floatBufferViews",
      "target": 34962
    },
    {
      "buffer": 0,
      "byteLength": 95104,
      "byteOffset": 446912,
      "byteStride": 16,
      "name": "floatBufferViews",
      "target": 34962
    }
  ],
  "buffers": [
    {
      "byteLength": 542016,
      "uri": "scene.bin"
    }
  ],
  "images": [
    {
      "uri": "textures/zapatoCuer_baseColor.jpeg"
    },
    {
      "uri": "textures/zapatoCuer_metallicRoughness.png"
    },
    {
      "uri": "textures/zapatoCuer_normal.png"
    },
    {
      "uri": "textures/zapatoPlastico_baseColor.jpeg"
    },
    {
      "uri": "textures/zapatoPlastico_metallicRoughness.png"
    },
    {
      "uri": "textures/zapatoPlastico_normal.png"
    }
  ],
  "materials": [
    {
      "doubleSided": true,
      "name": "zapatoCuer",
      "normalTexture": {
        "index": 2
      },
      "occlusionTexture": {
        "index": 1
      },
      "pbrMetallicRoughness": {
        "baseColorTexture": {
          "index": 0
        },
        "metallicRoughnessTexture": {
          "index": 1
        }
      }
    },
    {
      "doubleSided": true,
      "name": "zapatoPlastico",
      "normalTexture": {
        "index": 5
      },
      "occlusionTexture": {
        "index": 4
      },
      "pbrMetallicRoughness": {
        "baseColorTexture": {
          "index": 3
        },
        "metallicRoughnessTexture": {
          "index": 4
        }
      }
    }
  ],
  "meshes": [
    {
      "name": "Object_0",
      "primitives": [
        {
          "attributes": {
            "NORMAL": 1,
            "POSITION": 0,
            "TANGENT": 2,
            "TEXCOORD_0": 3,
            "TEXCOORD_1": 4,
            "TEXCOORD_2": 5,
            "TEXCOORD_3": 6
          },
          "indices": 7,
          "material": 0,
          "mode": 4
        }
      ]
    },
    {
      "name": "Object_1",
      "primitives": [
        {
          "attributes": {
            "NORMAL": 9,
            "POSITION": 8,
            "TANGENT": 10,
            "TEXCOORD_0": 11,
            "TEXCOORD_1": 12,
            "TEXCOORD_2": 13,
            "TEXCOORD_3": 14
          },
          "indices": 15,
          "material": 1,
          "mode": 4
        }
      ]
    }
  ],
  "nodes": [
    {
      "children": [
        1
      ],
      "matrix": [
        1.0,
        0.0,
        0.0,
        0.0,
        0.0,
        2.220446049250313e-16,
        -1.0,
        0.0,
        0.0,
        1.0,
        2.220446049250313e-16,
        0.0,
        0.0,
        0.0,
        0.0,
        1.0
      ],
      "name": "Sketchfab_model"
    },
    {
      "children": [
        2
      ],
      "name": "root"
    },
    {
      "children": [
        3
      ],
      "matrix": [
        1.0,
        0.0,
        0.0,
        0.0,
        0.0,
        2.220446049250313e-16,
        1.0,
        0.0,
        0.0,
        -1.0,
        2.220446049250313e-16,
        0.0,
        0.0,
        0.0,
        0.0,
        1.0
      ],
      "name": "GLTF_SceneRootNode"
    },
    {
      "children": [
        4,
        5
      ],
      "name": "zapato_1"
    },
    {
      "mesh": 0,
      "name": "Object_4"
    },
    {
      "mesh": 1,
      "name": "Object_5"
    }
  ],
  "samplers": [
    {
      "magFilter": 9729,
      "minFilter": 9987,
      "wrapS": 10497,
      "wrapT": 10497
    }
  ],
  "scene": 0,
  "scenes": [
    {
      "name": "Sketchfab_Scene",
      "nodes": [
        0
      ]
    }
  ],
  "textures": [
    {
      "sampler": 0,
      "source": 0
    },
    {
      "sampler": 0,
      "source": 1
    },
    {
      "sampler": 0,
      "source": 2
    },
    {
      "sampler": 0,
      "source": 3
    },
    {
      "sampler": 0,
      "source": 4
    },
    {
      "sampler": 0,
      "source": 5
    }
  ]
}
