{
  "accessors": [
    {
      "bufferView": 2,
      "componentType": 5126,
      "count": 435,
      "max": [
        0.8684126138687134,
        1.0592644214630127,
        0.4367489218711853
      ],
      "min": [
        -0.8683664798736572,
        -1.0592422485351563,
        -0.6263642907142639
      ],
      "type": "VEC3"
    },
    {
      "bufferView": 2,
      "byteOffset": 5220,
      "componentType": 5126,
      "count": 435,
      "max": [
        0.9903450608253479,
        0.9851287007331848,
        1.0
      ],
      "min": [
        -0.9903450608253479,
        -0.9851287603378296,
        -1.0
      ],
      "type": "VEC3"
    },
    {
      "bufferView": 3,
      "componentType": 5126,
      "count": 435,
      "max": [
        0.9998666048049927,
        0.5041327476501465,
        0.9894541501998901,
        1.0
      ],
      "min": [
        -0.9998667240142822,
        -0.5041343569755554,
        -0.9861260652542114,
        1.0
      ],
      "type": "VEC4"
    },
    {
      "bufferView": 1,
      "componentType": 5126,
      "count": 435,
      "max": [
        0.9992532730102539,
        0.6569643616676331
      ],
      "min": [
        0.0007466776296496391,
        0.0007466776296496391
      ],
      "type": "VEC2"
    },
    {
      "bufferView": 0,
      "componentType": 5125,
      "count": 2304,
      "type": "SCALAR"
    },
    {
      "bufferView": 2,
      "byteOffset": 10440,
      "componentType": 5126,
      "count": 428,
      "max": [
        0.2812931537628174,
        0.7967522740364075,
        1.33384370803833
      ],
      "min": [
        -0.2812931537628174,
        -0.363961786031723,
        -0.9651720523834229
      ],
      "type": "VEC3"
    },
    {
      "bufferView": 2,
      "byteOffset": 15576,
      "componentType": 5126,
      "count": 428,
      "max": [
        1.0,
        1.0,
        1.0
      ],
      "min": [
        -1.0,
        -1.0,
        -1.0
      ],
      "type": "VEC3"
    },
    {
      "bufferView": 1,
      "byteOffset": 3480,
      "componentType": 5126,
      "count": 428,
      "max": [
        0.9193246960639954,
        0.8930275440216064
      ],
      "min": [
        0.0007466776296496391,
        0.4893627166748047
      ],
      "type": "VEC2"
    },
    {
      "bufferView": 0,
      "byteOffset": 9216,
      "componentType": 5125,
      "count": 1536,
      "type": "SCALAR"
    }
  ],
  "asset": {
    "extras": {
      "author": "Azamuki (https://sketchfab.com/Azamuki)",
      "license": "CC-BY-4.0 (http://creativecommons.org/licenses/by/4.0/)",
      "source": "https://sketchfab.com/3d-models/coffee-bean-a7e9fc310f9b4fd3aac55f31bf9d6126",
      "title": "Coffee Bean"
    },
    "generator": "Sketchfab-12.66.0",
    "version": "2.0"
  },
  "bufferViews": [
    {
      "buffer": 0,
      "byteLength": 15360,
      "name": "floatBufferViews",
      "target": 34963
    },
    {
      "buffer": 0,
      "byteLength": 6904,
      "byteOffset": 15360,
      "byteStride": 8,
      "name": "floatBufferViews",
      "target": 34962
    },
    {
      "buffer": 0,
      "byteLength": 20712,
      "byteOffset": 22264,
      "byteStride": 12,
      "name": "floatBufferViews",
      "target": 34962
    },
    {
      "buffer": 0,
      "byteLength": 6960,
      "byteOffset": 42976,
      "byteStride": 16,
      "name": "floatBufferViews",
      "target": 34962
    }
  ],
  "buffers": [
    {
      "byteLength": 49936,
      "uri": "scene.bin"
    }
  ],
  "extensionsUsed": [
    "KHR_materials_transmission"
  ],
  "images": [
    {
      "uri": "textures/Coffebean_baseColor.png"
    },
    {
      "uri": "textures/Coffebean_metallicRoughness.png"
    },
    {
      "uri": "textures/Coffebean_normal.png"
    },
    {
      "uri": "textures/Drop_baseColor.png"
    },
    {
      "uri": "textures/Drop_transmission.png"
    }
  ],
  "materials": [
    {
      "doubleSided": true,
      "name": "Coffebean",
      "normalTexture": {
        "index": 2
      },
      "pbrMetallicRoughness": {
        "baseColorTexture": {
          "index": 0
        },
        "metallicFactor": 0.0,
        "metallicRoughnessTexture": {
          "index": 1
        }
      }
    },
    {
      "alphaMode": "BLEND",
      "doubleSided": true,
      "extensions": {
        "KHR_materials_transmission": {
          "transmissionFactor": 1.0,
          "transmissionTexture": {
            "index": 4
          }
        }
      },
      "name": "Drop",
      "pbrMetallicRoughness": {
        "baseColorTexture": {
          "index": 3
        },
        "metallicFactor": 0.0,
        "metallicRoughnessTexture": {
          "index": 1
        }
      }
    }
  ],
  "meshes": [
    {
      "name": "Coffebean_Coffebean_0",
      "primitives": [
        {
          "attributes": {
            "NORMAL": 1,
            "POSITION": 0,
            "TANGENT": 2,
            "TEXCOORD_0": 3
          },
          "indices": 4,
          "material": 0,
          "mode": 4
        }
      ]
    },
    {
      "name": "Drop_Drop_0",
      "primitives": [
        {
          "attributes": {
            "NORMAL": 6,
            "POSITION": 5,
            "TEXCOORD_0": 7
          },
          "indices": 8,
          "material": 1,
          "mode": 4
        }
      ]
    }
  ],
  "nodes": [
    {
      "children": [
        1
      ],
      "matrix": [
        1.0,
        0.0,
        0.0,
        0.0,
        0.0,
        2.220446049250313e-16,
        -1.0,
        0.0,
        0.0,
        1.0,
        2.220446049250313e-16,
        0.0,
        0.0,
        0.0,
        0.0,
        1.0
      ],
      "name": "Sketchfab_model"
    },
    {
      "children": [
        2
      ],
      "matrix": [
        1.0,
        0.0,
        0.0,
        0.0,
        0.0,
        0.0,
        1.0,
        0.0,
        0.0,
        -1.0,
        0.0,
        0.0,
        0.0,
        0.0,
        0.0,
        1.0
      ],
      "name": "coffee_bean_original.fbx"
    },
    {
      "children": [
        3,
        5
      ],
      "name": "RootNode"
    },
    {
      "children": [
        4
      ],
      "matrix": [
        100.0,
        -1.0235712894232456e-14,
        -2.4999371764294056e-15,
        0.0,
        2.499937233937277e-15,
        46.097556678179764,
        -88.74128277358855,
        0.0,
        1.023571288018692e-14,
        88.74128277358855,
        46.097556678179764,
        0.0,
        3.1058448456307286e-14,
        139.87481689453125,
        -45.178367614746094,
        1.0
      ],
      "name": "Coffebean"
    },
    {
      "mesh": 0,
      "name": "Coffebean_Coffebean_0"
    },
    {
      "children": [
        6
      ],
      "matrix": [
        100.0,
        0.0,
        0.0,
        0.0,
        0.0,
        -1.629206793918314e-05,
        -99.99999999999868,
        0.0,
        0.0,
        99.99999999999868,
        -1.629206793918314e-05,
        0.0,
        6.175788792715147e-15,
        27.81328010559082,
        75.38902282714844,
        1.0
      ],
      "name": "Drop"
    },
    {
      "mesh": 1,
      "name": "Drop_Drop_0"
    }
  ],
  "samplers": [
    {
      "magFilter": 9729,
      "minFilter": 9987,
      "wrapS": 10497,
      "wrapT": 10497
    }
  ],
  "scene": 0,
  "scenes": [
    {
      "name": "Sketchfab_Scene",
      "nodes": [
        0
      ]
    }
  ],
  "textures": [
    {
      "sampler": 0,
      "source": 0
    },
    {
      "sampler": 0,
      "source": 1
    },
    {
      "sampler": 0,
      "source": 2
    },
    {
      "sampler": 0,
      "source": 3
    },
    {
      "sampler": 0,
      "source": 4
    }
  ]
}
